inDegrees=no
num_controls=7
num_derivatives=13
num_iterations=76
num_multipliers=7
num_parameters=0
num_slacks=7
num_states=26
objective=0.334218
objective_accelerations=0.036762
objective_balance=0.001215
objective_effort=0.027501
objective_height=0.267077
objective_ligament=0.001663
solver_duration=789.370295
status=Solve_Succeeded
success=true
DataType=double
version=3
OpenSimVersion=4.5
endheader
time	/jointset/ground_pelvis/pelvis_tilt/value	/jointset/ground_pelvis/pelvis_tx/value	/jointset/ground_pelvis/pelvis_ty/value	/jointset/hip_r/hip_flexion_r/value	/jointset/hip_r/hip_adduction_r/value	/jointset/hip_r/hip_rotation_r/value	/jointset/back/lumbar_extension/value	/jointset/patellofemoral_r/patellar_flexion_r/value	/jointset/knee_r/knee_flexion_r/value	/jointset/knee_r/knee_adduction_r/value	/jointset/knee_r/knee_rotation_r/value	/jointset/ankle_r/ankle_angle_r/value	/jointset/subtalar_r/subtalar_angle_r/value	/jointset/ground_pelvis/pelvis_tilt/speed	/jointset/ground_pelvis/pelvis_tx/speed	/jointset/ground_pelvis/pelvis_ty/speed	/jointset/hip_r/hip_flexion_r/speed	/jointset/hip_r/hip_adduction_r/speed	/jointset/hip_r/hip_rotation_r/speed	/jointset/back/lumbar_extension/speed	/jointset/patellofemoral_r/patellar_flexion_r/speed	/jointset/knee_r/knee_flexion_r/speed	/jointset/knee_r/knee_adduction_r/speed	/jointset/knee_r/knee_rotation_r/speed	/jointset/ankle_r/ankle_angle_r/speed	/jointset/subtalar_r/subtalar_angle_r/speed	/forceset/tau_hip_flexion_r	/forceset/tau_hip_adduction_r	/forceset/tau_hip_rotation_r	/forceset/tau_knee_flexion_r	/forceset/tau_ankle_angle_r	/forceset/tau_subtalar_angle_r	/forceset/tau_lumbar_extension	lambda_cid13_p0	lambda_cid14_p0	lambda_cid14_p1	lambda_cid14_p2	lambda_cid14_p3	lambda_cid14_p4	lambda_cid14_p5	/jointset/ground_pelvis/pelvis_tilt/accel	/jointset/ground_pelvis/pelvis_tx/accel	/jointset/ground_pelvis/pelvis_ty/accel	/jointset/hip_r/hip_flexion_r/accel	/jointset/hip_r/hip_adduction_r/accel	/jointset/hip_r/hip_rotation_r/accel	/jointset/back/lumbar_extension/accel	/jointset/patellofemoral_r/patellar_flexion_r/accel	/jointset/knee_r/knee_flexion_r/accel	/jointset/knee_r/knee_adduction_r/accel	/jointset/knee_r/knee_rotation_r/accel	/jointset/ankle_r/ankle_angle_r/accel	/jointset/subtalar_r/subtalar_angle_r/accel	gamma_cid13_p0	gamma_cid14_p0	gamma_cid14_p1	gamma_cid14_p2	gamma_cid14_p3	gamma_cid14_p4	gamma_cid14_p5
0.5	-0.1729249959474272	0.03188174203382324	0.804997758098586	0.9171273978488867	-0.2433803406094984	-0.07327581990260466	-0.6475907570194211	0.95702858023322	0.9570285802332392	0.02854509199839804	0.1743858236510324	0.2928881807211006	0.1055461637246339	-0.4320373691594179	-0.20598871478905	-0.5023456042431569	1.941973202251443	-0.003778106721669021	0.3475726477310061	-0.7372124910348932	1.939579510916275	1.939579510916262	-0.3001996214594729	-0.0004491146583390304	0.5292118839718736	0.1778998533571604	-0.2147900926561262	0.01942184670146695	0.02918860859499355	-0.2681098641928661	-0.02027141737937925	-0.01378629589735076	0.2492747516901402	-7.946266142084822	-49.5239199702244	-13.61485445989189	1.400227696017766	-2.854560225281511	-639.9958159257284	49.63684140418447	0.3334203512163463	0.5828054765084271	-0.4308738143620018	-1.273494714121799	-0.04746797309423922	-0.378436043995332	1.8219829617089	-1.364933187923749	-1.364933187923749	0.5168188902633841	-0.05028341611334994	-0.54628369514328	-0.09522458649066994	-5.678161492638445e-09	1.476364379824465e-07	2.528614792513362e-06	1.568152442924669e-06	-3.782458190214105e-07	7.266057389930365e-09	1.590001736022318e-06
0.51	-0.1772277467680508	0.02985117171810138	0.7999539296644299	0.9364804155420847	-0.2434205958552363	-0.06982295093009645	-0.6548712271784607	0.9763530559596044	0.976353055959588	0.02556658834355754	0.1743815029123939	0.2981520266360519	0.1073199369164183	-0.4284418900216334	-0.2001087422896609	-0.5063073272643203	1.928367742877013	-0.004269923564227171	0.3429939343342168	-0.7187949974333089	1.925050751603593	1.925050751603574	-0.2954818350312391	-0.0004251877852400352	0.5234775535324091	0.1768252654109274	-0.2217750253652195	0.02079607815983418	0.02939176676835166	-0.2724579796471313	-0.02181481401548225	-0.0134595976466699	0.2555813092019489	-7.010880427136943	-50.33877954547701	-13.76803074341206	1.598708008402555	-2.739090194513925	-645.0529667156209	49.68592983039394	0.3832614595654116	0.5930084087623717	-0.3619079339341419	-1.443441494821499	-0.049208575366881	-0.498683238123889	1.864614060321891	-1.536578443052608	-1.536578443053534	0.4524967505948062	0.02758232599975071	-0.5990555601937637	-0.1174217521185546	-5.98944046162327e-09	1.428500850530987e-07	2.492041736315922e-06	1.504180994068334e-06	-3.726884302840296e-07	2.989187192803003e-10	1.625672239519195e-06
0.52	-0.1814924128443954	0.02787988418179538	0.7948738667224738	0.9556895046523995	-0.2434656032765072	-0.06641608794167568	-0.6619649261012959	0.9955242978648389	0.9955242978647847	0.02263591019928719	0.1743771917598888	0.3033561196782399	0.1090821950580545	-0.4244204203036155	-0.194132158905877	-0.5095925058031248	1.913187485673872	-0.004728541827994543	0.3383714509132983	-0.6998582437941858	1.908932746686424	1.908932746686398	-0.2906345193433482	-0.000447197433012109	0.5172613094191159	0.1755968433275377	-0.2287599580742827	0.02217030961820278	0.0295949249417616	-0.2768060951013924	-0.02335821065158927	-0.01313289939598932	0.2618878667137847	-6.13675638141124	-51.15234854162842	-13.91753103023284	1.792663248636675	-2.639912560316318	-650.0911400534405	49.73204169566426	0.4186184672629532	0.6021276533874618	-0.2955649178902474	-1.588454279864104	-0.0408282573360903	-0.3871900488211043	1.925834969216647	-1.682782308821233	-1.682782308821233	0.5427247421948741	-0.05947072028759107	-0.6426664299090068	-0.1259914139220229	-5.225109206617681e-09	1.372595296930369e-07	2.406166333391508e-06	1.426526523245803e-06	-3.615737298281628e-07	-2.263706965833831e-09	1.622211243464117e-06
0.53	-0.1857147897109731	0.02596877106905073	0.7897643595627435	0.9747390837042845	-0.2435150479062566	-0.06305565658966597	-0.6688667818602667	1.014526565785507	1.014526565785468	0.01975427665596811	0.1743723938174311	0.3084956951146774	0.1108313686719584	-0.4199857852924321	-0.1880808726729626	-0.5121927774549898	1.89647482531545	-0.005153157613626962	0.3336786781143263	-0.6804420015454692	1.89126613088908	1.891266130889064	-0.2857040129825512	-0.0005096934086516318	0.5105799011274004	0.1742155893745332	-0.2356536802391073	0.0235655422111405	0.02966830667377414	-0.281211250095249	-0.02501389606973608	-0.0128374130641821	0.2680704164324177	-5.324500469816277	-52.01265400949967	-14.0879750773079	1.989048057983754	-2.448829574683808	-655.2079398947179	49.74086207106386	0.4662741311660284	0.6079966068112875	-0.2248367075465889	-1.750679257492438	-0.04186149861009788	-0.5157639220411371	1.960154820857495	-1.846806234236811	-1.8468062342352	0.4667512915808505	0.02111220563738693	-0.6920389908517849	-0.1469998268729895	-4.181844131964758e-09	1.317536376084847e-07	2.309582401648673e-06	1.348471052592354e-06	-3.494674335904071e-07	-3.614518286699834e-09	1.606519575049574e-06
0.54	-0.1898907426048151	0.02411844431834912	0.784632334002752	0.9936139346838575	-0.2435684553457503	-0.05974324157096584	-0.6755723480031181	1.033344526544389	1.033344526544367	0.01692165571794384	0.1743671211635979	0.3135662242757883	0.1125661682581556	-0.4151356257564514	-0.1819748864972695	-0.5140961858553524	1.878241871210589	-0.005521103776589136	0.3287681842511143	-0.6606003205704278	1.872071314329905	1.8720713143299	-0.280831998279404	-0.0005421397107109229	0.5034520543537278	0.172722037786197	-0.2425474024039038	0.02496077480408107	0.02974168840590263	-0.2856164050890987	-0.02666958148788675	-0.01254192673237372	0.2742529661510757	-4.574189894225638	-52.87209959467146	-14.25453854188476	2.180555058488236	-2.275811105277433	-660.3140969441608	49.75093770315279	0.5017233722223363	0.613067641943287	-0.1561922675897122	-1.89251302915172	-0.02949433280204519	-0.4307342616690512	2.010922714481623	-1.988422461187297	-1.988422461187297	0.5310264106650214	-0.05346078557156564	-0.731954126300342	-0.1484509409883543	-2.829971427063717e-09	1.263414155308792e-07	2.201150735893965e-06	1.269971922551508e-06	-3.362640526577957e-07	-3.62459882158917e-09	1.577296098918177e-06
